# xmcd CD database file
#
# Track frame offsets:
#	150
#	39510
#	77155
#	99645
#	157355
#	189360
#	209840
#
# Disc length: 3038 seconds
#
# Revision: 1
# Processed by: cddbd v1.4PL0 Copyright (c) Steve Scherf et al.
# Submitted via: CDex 1.50beta9
#
DISCID=610bdc07
DTITLE=Phil Thornton - Forever Dream
DYEAR=1995
DGENRE=New Age
TTITLE0=Forever Dream (Part I)
TTITLE1=Forever Dream (Part II and III)
TTITLE2=Forever Dream (Part IV)
TTITLE3=Terra Nova
TTITLE4=Oasis
TTITLE5=Sirocco
TTITLE6=Forever Dream (Part I) (Studio Version)
EXTD=YEAR: 1995
EXTT0=
EXTT1=
EXTT2=
EXTT3=
EXTT4=
EXTT5=
EXTT6=
PLAYORDER=
